<svg xmlns="http://www.w3.org/2000/svg" viewBox="0 0 393.16 582.09"><g id="Camada_2" data-name="Camada 2"><g id="Camada_1-2" data-name="Camada 1"><polygon points="235.18 335.33 225.64 343.75 225.64 343.75 235.18 335.33 235.18 335.33" style="fill:#28334d"/><polygon points="194.02 371.68 192.74 373.07 194.02 371.68 219.07 349.55 219.07 349.55 194.02 371.68" style="fill:#28334d"/><path d="M179,145.47h0L177,149Z" style="fill:#28334d"/><polygon points="235.18 335.33 242.14 329.19 251.28 321.11 242.14 329.19 235.18 335.33" style="fill:#28334d"/><polygon points="336.51 245.58 195.52 0 195.52 369.34 336.51 245.58" style="fill:#9fa5ac"/><path d="M311.2,367.55,303,352.9q-6.07-10.8-12.16-21.58l-8.88-15.78-5.14,4.5c.33.57.65,1.15,1,1.72l12.93,22.95L300,361.29c1.32,2.35,2.52,4.95,4,7.21l-10.87,12q-13.53,15-27.08,30l-32.83,36.36-28.39,31.43c-3.71,4.11-7.58,8.11-11.24,12.29l-5.74-6.33q-13.59-15-27.19-30-16.42-18.17-32.87-36.32-14.25-15.75-28.49-31.49c-4-4.36-7.79-8.95-11.85-13.22L89.83,369l8.32-14.62,12.3-21.62,15-26.39,16.44-28.9,16.6-29.17q7.74-13.6,15.47-27.21l5-8.84v-23.7l-11.38,20-15,26.38-16.45,28.9L119.59,293l-15.48,27.2L91,343.23q-4.69,8.28-9.41,16.54c-1.47,2.59-3.15,5.14-4.45,7.84-.06.11-.13.22-.2.33-.65,1.15.85,2.76,1.45,3.43l11.37,12.56L117,414q16.44,18.15,32.87,36.32l28.5,31.48c4.59,5.07,9.11,10.23,13.77,15.22l.21.22a12.44,12.44,0,0,0,4.94,3.27c1.11.38,2.5.79,3.41-.23L212,487.67q13.54-15,27.08-30L272,421.32l28.39-31.43,9.37-10.38a48.58,48.58,0,0,0,4.4-4.88c.06-.08.14-.15.2-.22a1.74,1.74,0,0,0-.09-1.51Z" style="fill:#28334d"/><path d="M287.54,366.75l-6.42-11.59-9.56-17.24-5-8.95-7.37,6.47q4.81,8.7,9.64,17.39,3.63,6.57,7.27,13.12c1,1.83,1.93,3.85,3.05,5.62l-7.83,8.8-21.24,23.86-25.83,29L202.1,458.19c-2.13,2.4-4.31,4.77-6.46,7.17l-4.33-4.86q-10.6-11.94-21.22-23.86-12.9-14.52-25.82-29L122.1,382.68l-7.32-8.23c-.85-1-1.68-2-2.57-3l1.85-3.29,6.53-11.61,9.65-17.17q5.89-10.49,11.78-21l12.91-22.95,13-23.18L179,252.66V233.15l-6.33,11.25q-5.9,10.48-11.78,21L148,288.31l-13,23.18L122.82,333.1l-10.27,18.26q-3.69,6.57-7.39,13.14c-1.16,2.07-2.43,4.1-3.5,6.23l-.15.27c-.46.82,0,1.54.53,2.11l8.91,10q10.6,11.92,21.22,23.86L158,436l22.17,24.93,7.32,8.23c1.16,1.3,2.28,2.69,3.5,3.93l.15.17c1,1.17,3.19,1.36,4.55,1.36s3.51-.19,4.55-1.36l8.91-10q10.62-11.94,21.23-23.87,12.93-14.5,25.84-29l22.18-24.93c3.61-4.06,7.25-8.07,10.83-12.16l.15-.17a1.79,1.79,0,0,0,.53-2.11Z" style="fill:#28334d"/><path d="M263.12,368.12l-4.65-8.64q-3.44-6.36-6.86-12.71l-1.69-3.15-7,6.12q2.43,4.49,4.85,9,2.63,4.88,5.26,9.76c.71,1.33,1.36,2.76,2.14,4.06L249.56,379l-15.45,17.8q-9.33,10.77-18.68,21.53L199.28,437c-1.11,1.29-2.24,2.57-3.37,3.85l-2.16-2.5-15.31-17.73L159.82,399l-16-18.54-5.31-6.15c-.7-.81-1.38-1.83-2.16-2.59l1.37-2.5q2.37-4.29,4.73-8.58l7-12.75q4.29-7.77,8.57-15.56,4.67-8.47,9.34-17l9.48-17.2q1.06-1.95,2.15-3.9V277c-.24.44-.48.88-.73,1.31l-8.56,15.56-9.35,17q-4.73,8.61-9.47,17.21-4.43,8-8.83,16l-7.44,13.49-5.37,9.75c-.84,1.53-1.77,3-2.53,4.61l-.12.2a1,1,0,0,0,.09,1.12q3.22,3.72,6.43,7.45l15.31,17.73q9.3,10.8,18.62,21.58l16,18.54c2.6,3,5.12,6.17,7.82,9.07a.63.63,0,0,1,.11.12c1,1.13,2.84,1.17,4.12,1.12a10.49,10.49,0,0,0,2.48-.38,4.77,4.77,0,0,0,2.23-1.09l6.43-7.41,15.45-17.8,18.68-21.53,16.15-18.6c2.61-3,5.24-6,7.83-9a1.47,1.47,0,0,1,.1-.13c.48-.55.75-.95.36-1.67Z" style="fill:#28334d"/><path d="M238.68,369.45l-2.84-5.58-2.77-5.47-6.58,5.78c.09.17.18.34.26.52L230,371c.39.78.76,1.59,1.17,2.36l-3.38,4.11-9.6,11.67-11.58,14.08-10,12.17-.49.59-.43-.53-9.43-11.66-11.4-14.09L165,377.53l-3.26-4c-.39-.49-.76-1-1.17-1.51l.81-1.54c1-1.87,2-3.73,2.95-5.59l4.38-8.31L174,346.48q2.51-4.77,5-9.54V321.45l-.4.75-5.85,11.1-5.87,11.14-5.51,10.45-4.63,8.78L153.41,370c-.53,1-1.11,2-1.58,3,0,0-.05.08-.07.13a.9.9,0,0,0,.16,1l3.94,4.87,9.43,11.66,11.4,14.08q4.92,6.11,9.85,12.19l3.26,4c.5.63,1,1.31,1.53,1.9l.07.09a2.34,2.34,0,0,0,1.25.61,6.89,6.89,0,0,0,2.56,0,10.06,10.06,0,0,0,2.22-.57,4.63,4.63,0,0,0,1.94-1.17l4-4.87q4.81-5.83,9.61-11.68l11.57-14.07q5-6.09,10-12.17c1.63-2,3.29-3.93,4.89-5.94l.07-.08a1.15,1.15,0,0,0,.2-1.54C239.38,370.83,239,370.14,238.68,369.45Z" style="fill:#28334d"/><path d="M335.46,366l-10-17.63-14.83-26.07q-1.95-3.4-3.88-6.81h-8.13l13.33,23.41,11.35,19.94c1.64,2.88,3.12,6.08,5,8.84l-13.31,14.61L281.84,418.6,242,462.31q-17.24,18.88-34.45,37.78l-11.36,12.46c-.9,1-1.82,2-2.74,2.93q-3.93-4.28-7.85-8.57l-33-36.11L112.46,427,77.82,389.17c-4.91-5.36-9.67-11-14.71-16.23l3.1-5.42,10.08-17.58,15-26.12q9.09-15.85,18.19-31.72l20-34.91L149.67,222l18.75-32.71L179,170.78V158.21l0-12.74L177,149q-7.5,13-15,26.12l-18.19,31.72-20,34.91L103.58,277q-9.37,16.35-18.76,32.71L68.9,337.47,57.5,357.35c-1.78,3.11-3.89,6.19-5.42,9.47-.07.14-.16.27-.24.4-.66,1.17,1.14,2.85,1.71,3.47q6.93,7.59,13.88,15.16L100.48,422l40.09,43.79,34.64,37.84C180.8,509.71,186.29,516,192,522l.24.27a13.91,13.91,0,0,0,5.37,3.43c1.09.39,2.63.93,3.57-.1L215,510.44,248,474.17l39.85-43.71,34.44-37.78,11.36-12.46q1.79-1.94,3.55-3.89a17.19,17.19,0,0,0,1.86-2,2,2,0,0,1,.24-.26,1.68,1.68,0,0,0-.18-1.51Q337.3,369.28,335.46,366Z" style="fill:#28334d"/><path d="M363.54,371.28l-.23-.4-4.14-7.21-11.8-20.58-15.8-27.56h-8.5L333.68,334,347,357.31c1.8,3.13,3.57,6.29,5.39,9.42L337,383.53l-38.83,42.3L251.23,477l-40.69,44.34-13.32,14.5c-1.26,1.37-2.58,2.71-3.86,4.08L182.7,528.35l-39-42.3L96.45,434.87,55.61,390.6c-5.57-6-11-12.32-16.67-18.25l3.24-5.63,11.9-20.63,17.59-30.53q10.74-18.62,21.47-37.24l23.52-40.79,23.73-41.18L162.53,158q8.21-14.24,16.4-28.47l-.06-26.94q-2.26,3.93-4.54,7.86l-17.59,30.53-21.47,37.24Q123.51,198.57,111.76,219L88,260.15,65.89,298.54,47.18,331,33.74,354.32c-2.12,3.66-4.44,7.26-6.37,11-.08.17-.18.32-.27.48-1.07,1.84,1.36,4.45,2.36,5.54L45.71,389l39,42.3L132,482.48l40.84,44.26c6.62,7.17,13.12,14.51,19.87,21.54l.28.3c1.49,1.61,6.21,5.26,8.36,2.93l16.23-17.69,38.83-42.31,46.95-51.15Q323.67,418.19,344,396l13.31-14.51c2.05-2.24,4.55-4.4,6.34-6.91a4,4,0,0,1,.28-.3,2,2,0,0,0,.09-1.83A5.12,5.12,0,0,0,363.54,371.28Z" style="fill:#28334d"/><path d="M392.37,371.18l-.26-.46q-2.42-4.2-4.82-8.41l-13.76-24q-6.52-11.4-13.07-22.8h-9.9l7,12.25q7.79,13.56,15.55,27.12c2.1,3.66,4.17,7.33,6.28,11l-18,19.57L316.2,434.76l-54.71,59.6L214.08,546l-15.52,16.91c-1.46,1.6-3,3.15-4.49,4.75l-12.43-13.46-45.48-49.29-55-59.65L33.53,393.7c-6.48-7-12.81-14.35-19.42-21.27l3.78-6.56,13.86-24.05,20.51-35.56q12.5-21.7,25-43.4l27.41-47.54,27.66-48q12.89-22.38,25.79-44.75l20.7-35.9-.08-31.4-6.86,11.9-20.5,35.57-25,43.39L99,193.69l-27.66,48-25.8,44.74L23.72,324.23q-7.85,13.59-15.67,27.19c-2.47,4.27-5.17,8.46-7.42,12.87-.1.19-.22.37-.32.55C-.93,367,1.89,370,3.06,371.3Q12.52,381.56,22,391.83l45.48,49.29,55,59.64q23.79,25.8,47.59,51.58c7.71,8.36,15.3,16.91,23.16,25.1l.33.36c1.73,1.87,7.24,6.13,9.73,3.41l18.92-20.62q22.63-24.65,45.25-49.3l54.71-59.61L369.63,400l15.51-16.91c2.39-2.6,5.3-5.12,7.39-8a3.7,3.7,0,0,1,.33-.36,2.3,2.3,0,0,0,.1-2.13A5.55,5.55,0,0,0,392.37,371.18Z" style="fill:#28334d"/></g></g></svg>